{
  "source": "C:\\Users\\Peter\\Desktop\\stuff\\MIUN\\quantitative_research\\video_compression\\videos\\UVG\\YachtRide_1920x1080_120fps_420_8bit_YUV.y4m",
  "output": "C:\\Users\\Peter\\Desktop\\stuff\\MIUN\\quantitative_research\\video_compression\\compressed_videos\\UVG\\vp9\\8\\YachtRide_1920x1080_120fps_420_8bit_YUV_vp9.webm",
  "codec": "vp9",
  "ok": "[yuv4mpegpipe @ 000001af7a6d52c0] Stream #0: not enough frames to estimate rate; consider increasing probesize\nInput #0, yuv4mpegpipe, from 'C:\\Users\\Peter\\Desktop\\stuff\\MIUN\\quantitative_research\\video_compression\\videos\\UVG\\YachtRide_1920x1080_120fps_420_8bit_YUV.y4m':\n  Duration: 00:00:05.00, start: 0.000000, bitrate: 2985989 kb/s\n  Stream #0:0: Video: rawvideo (I420 / 0x30323449), yuv420p(progressive), 1920x1080, 120 fps, 120 tbr, 120 tbn\n[out#0/webm @ 000001af7a6d9b80] Codec AVOption b:a (set bitrate (in bits/s)) has not been used for any stream. The most likely reason is either wrong type (e.g. a video option with no video streams) or that it is a private option of some decoder which was not actually used for any stream.\nStream mapping:\n  Stream #0:0 -> #0:0 (rawvideo (native) -> vp9 (libvpx-vp9))\nPress [q] to stop, [?] for help\n[libvpx-vp9 @ 000001af7a6dcec0] v1.15.2-100-g40561f514\nOutput #0, webm, to 'C:\\Users\\Peter\\Desktop\\stuff\\MIUN\\quantitative_research\\video_compression\\compressed_videos\\UVG\\vp9\\8\\YachtRide_1920x1080_120fps_420_8bit_YUV_vp9.webm':\n  Metadata:\n    encoder         : Lavf62.3.100\n  Stream #0:0: Video: vp9, yuv420p(tv, progressive), 1920x1080, q=2-31, 8000 kb/s, 120 fps, 1k tbn\n    Metadata:\n      encoder         : Lavc62.11.100 libvpx-vp9\n    Side data:\n      cpb: bitrate max/min/avg: 0/0/0 buffer size: 8000000 vbv_delay: N/A\nframe=    1 fps=0.0 q=24.0 size=       0KiB time=00:00:00.00 bitrate= 461.8kbits/s speed=0.0161x elapsed=0:00:00.51    \nframe=    6 fps=5.7 q=52.0 size=       0KiB time=00:00:00.05 bitrate=  77.0kbits/s speed=0.0479x elapsed=0:00:01.04    \nframe=   11 fps=6.9 q=50.0 size=       0KiB time=00:00:00.09 bitrate=  42.0kbits/s speed=0.0576x elapsed=0:00:01.59    \nframe=   15 fps=7.1 q=50.0 size=       0KiB time=00:00:00.12 bitrate=  30.8kbits/s speed=0.0593x elapsed=0:00:02.10    \nframe=   20 fps=7.5 q=50.0 size=       0KiB time=00:00:00.16 bitrate=  23.1kbits/s speed=0.0627x elapsed=0:00:02.65    \nframe=   24 fps=7.4 q=51.0 size=       0KiB time=00:00:00.20 bitrate=  19.2kbits/s speed=0.062x elapsed=0:00:03.22    \nframe=   28 fps=7.4 q=51.0 size=       0KiB time=00:00:00.23 bitrate=  16.5kbits/s speed=0.062x elapsed=0:00:03.76    \nframe=   32 fps=7.4 q=52.0 size=       0KiB time=00:00:00.26 bitrate=  14.4kbits/s speed=0.0618x elapsed=0:00:04.31    \nframe=   36 fps=7.4 q=51.0 size=       0KiB time=00:00:00.30 bitrate=  12.8kbits/s speed=0.062x elapsed=0:00:04.84    \nframe=   40 fps=7.5 q=52.0 size=       0KiB time=00:00:00.33 bitrate=  11.5kbits/s speed=0.0621x elapsed=0:00:05.36    \nframe=   43 fps=7.3 q=53.0 size=       0KiB time=00:00:00.35 bitrate=  10.7kbits/s speed=0.0605x elapsed=0:00:05.91    \nframe=   47 fps=7.3 q=52.0 size=       0KiB time=00:00:00.39 bitrate=   9.8kbits/s speed=0.0609x elapsed=0:00:06.43    \nframe=   51 fps=7.3 q=52.0 size=       0KiB time=00:00:00.42 bitrate=   9.1kbits/s speed=0.061x elapsed=0:00:06.96    \nframe=   54 fps=7.2 q=52.0 size=       0KiB time=00:00:00.45 bitrate=   8.6kbits/s speed=0.0601x elapsed=0:00:07.49    \nframe=   58 fps=7.2 q=52.0 size=       0KiB time=00:00:00.48 bitrate=   8.0kbits/s speed=0.0604x elapsed=0:00:08.00    \nframe=   61 fps=7.1 q=52.0 size=       0KiB time=00:00:00.50 bitrate=   7.6kbits/s speed=0.0595x elapsed=0:00:08.54    \nframe=   65 fps=7.2 q=52.0 size=       0KiB time=00:00:00.54 bitrate=   7.1kbits/s speed=0.0598x elapsed=0:00:09.06    \nframe=   68 fps=7.1 q=52.0 size=       0KiB time=00:00:00.56 bitrate=   6.8kbits/s speed=0.0592x elapsed=0:00:09.57    \nframe=   72 fps=7.1 q=52.0 size=       0KiB time=00:00:00.60 bitrate=   6.4kbits/s speed=0.0593x elapsed=0:00:10.11    \nframe=   76 fps=7.1 q=50.0 size=       0KiB time=00:00:00.63 bitrate=   6.1kbits/s speed=0.0595x elapsed=0:00:10.65    \nframe=   79 fps=7.1 q=51.0 size=       0KiB time=00:00:00.65 bitrate=   5.8kbits/s speed=0.0589x elapsed=0:00:11.18    \nframe=   83 fps=7.1 q=48.0 size=       0KiB time=00:00:00.69 bitrate=   5.6kbits/s speed=0.0591x elapsed=0:00:11.71    \nframe=   86 fps=7.0 q=49.0 size=       0KiB time=00:00:00.71 bitrate=   5.4kbits/s speed=0.0584x elapsed=0:00:12.26    \nframe=   90 fps=7.0 q=49.0 size=       0KiB time=00:00:00.75 bitrate=   5.1kbits/s speed=0.0586x elapsed=0:00:12.80    \nframe=   93 fps=7.0 q=49.0 size=       0KiB time=00:00:00.77 bitrate=   5.0kbits/s speed=0.0581x elapsed=0:00:13.33    \nframe=   97 fps=7.0 q=49.0 size=       0KiB time=00:00:00.80 bitrate=   4.8kbits/s speed=0.0583x elapsed=0:00:13.85    \nframe=  100 fps=7.0 q=49.0 size=       0KiB time=00:00:00.83 bitrate=   4.6kbits/s speed=0.0579x elapsed=0:00:14.38    \nframe=  104 fps=7.0 q=49.0 size=       0KiB time=00:00:00.86 bitrate=   4.4kbits/s speed=0.0582x elapsed=0:00:14.89    \nframe=  108 fps=7.0 q=49.0 size=       0KiB time=00:00:00.90 bitrate=   4.3kbits/s speed=0.0584x elapsed=0:00:15.41    \nframe=  111 fps=7.0 q=38.0 size=       0KiB time=00:00:00.92 bitrate=   4.2kbits/s speed=0.0581x elapsed=0:00:15.92    \nframe=  115 fps=7.0 q=50.0 size=       0KiB time=00:00:00.95 bitrate=   4.0kbits/s speed=0.0583x elapsed=0:00:16.44    \nframe=  119 fps=7.0 q=50.0 size=       0KiB time=00:00:00.99 bitrate=   3.9kbits/s speed=0.0584x elapsed=0:00:16.98    \nframe=  122 fps=7.0 q=49.0 size=       0KiB time=00:00:01.01 bitrate=   3.8kbits/s speed=0.058x elapsed=0:00:17.51    \nframe=  126 fps=7.0 q=50.0 size=       0KiB time=00:00:01.05 bitrate=   3.7kbits/s speed=0.0582x elapsed=0:00:18.03    \nframe=  130 fps=7.0 q=48.0 size=     768KiB time=00:00:01.08 bitrate=5807.5kbits/s speed=0.0584x elapsed=0:00:18.55    \nframe=  134 fps=7.0 q=48.0 size=     768KiB time=00:00:01.11 bitrate=5634.1kbits/s speed=0.0585x elapsed=0:00:19.07    \nframe=  138 fps=7.0 q=48.0 size=     768KiB time=00:00:01.15 bitrate=5470.8kbits/s speed=0.0586x elapsed=0:00:19.60    \nframe=  142 fps=7.1 q=49.0 size=     768KiB time=00:00:01.18 bitrate=5316.7kbits/s speed=0.0588x elapsed=0:00:20.13    \nframe=  146 fps=7.1 q=48.0 size=     768KiB time=00:00:01.21 bitrate=5171.1kbits/s speed=0.0589x elapsed=0:00:20.64    \nframe=  149 fps=7.0 q=49.0 size=     768KiB time=00:00:01.24 bitrate=5066.9kbits/s speed=0.0587x elapsed=0:00:21.16    \nframe=  153 fps=7.1 q=49.0 size=     768KiB time=00:00:01.27 bitrate=4934.5kbits/s speed=0.0588x elapsed=0:00:21.67    \nframe=  156 fps=7.0 q=50.0 size=     768KiB time=00:00:01.30 bitrate=4839.6kbits/s speed=0.0585x elapsed=0:00:22.20    \nframe=  160 fps=7.0 q=51.0 size=     768KiB time=00:00:01.33 bitrate=4718.6kbits/s speed=0.0587x elapsed=0:00:22.72    \nframe=  163 fps=7.0 q=50.0 size=     768KiB time=00:00:01.35 bitrate=4631.7kbits/s speed=0.0584x elapsed=0:00:23.24    \nframe=  167 fps=7.0 q=50.0 size=     768KiB time=00:00:01.39 bitrate=4520.8kbits/s speed=0.0585x elapsed=0:00:23.77    \nframe=  171 fps=7.0 q=51.0 size=     768KiB time=00:00:01.42 bitrate=4415.1kbits/s speed=0.0586x elapsed=0:00:24.32    \nframe=  174 fps=7.0 q=36.0 size=     768KiB time=00:00:01.45 bitrate=4338.9kbits/s speed=0.0583x elapsed=0:00:24.85    \nframe=  178 fps=7.0 q=49.0 size=     768KiB time=00:00:01.48 bitrate=4241.4kbits/s speed=0.0584x elapsed=0:00:25.39    \nframe=  182 fps=7.0 q=49.0 size=     768KiB time=00:00:01.51 bitrate=4148.2kbits/s speed=0.0585x elapsed=0:00:25.91    \nframe=  186 fps=7.0 q=50.0 size=     768KiB time=00:00:01.55 bitrate=4059.0kbits/s speed=0.0586x elapsed=0:00:26.45    \nframe=  189 fps=7.0 q=39.0 size=     768KiB time=00:00:01.57 bitrate=3994.6kbits/s speed=0.0583x elapsed=0:00:26.99    \nframe=  193 fps=7.0 q=52.0 size=     768KiB time=00:00:01.60 bitrate=3911.8kbits/s speed=0.0585x elapsed=0:00:27.50    \nframe=  196 fps=7.0 q=39.0 size=     768KiB time=00:00:01.63 bitrate=3851.9kbits/s speed=0.0583x elapsed=0:00:28.03    \nframe=  201 fps=7.0 q=52.0 size=     768KiB time=00:00:01.67 bitrate=3756.1kbits/s speed=0.0587x elapsed=0:00:28.55    \nframe=  204 fps=7.0 q=52.0 size=     768KiB time=00:00:01.70 bitrate=3700.9kbits/s speed=0.0584x elapsed=0:00:29.10    \nframe=  208 fps=7.0 q=52.0 size=     768KiB time=00:00:01.73 bitrate=3629.7kbits/s speed=0.0585x elapsed=0:00:29.63    \nframe=  211 fps=7.0 q=53.0 size=     768KiB time=00:00:01.75 bitrate=3578.1kbits/s speed=0.0583x elapsed=0:00:30.16    \nframe=  215 fps=7.0 q=52.0 size=     768KiB time=00:00:01.79 bitrate=3511.5kbits/s speed=0.0584x elapsed=0:00:30.68    \nframe=  219 fps=7.0 q=51.0 size=     768KiB time=00:00:01.82 bitrate=3447.4kbits/s speed=0.0585x elapsed=0:00:31.19    \nframe=  223 fps=7.0 q=53.0 size=     768KiB time=00:00:01.85 bitrate=3385.5kbits/s speed=0.0586x elapsed=0:00:31.73    \nframe=  226 fps=7.0 q=51.0 size=     768KiB time=00:00:01.88 bitrate=3340.6kbits/s speed=0.0583x elapsed=0:00:32.27    \nframe=  230 fps=7.0 q=53.0 size=     768KiB time=00:00:01.91 bitrate=3282.5kbits/s speed=0.0585x elapsed=0:00:32.79    \nframe=  234 fps=7.0 q=52.0 size=     768KiB time=00:00:01.95 bitrate=3226.4kbits/s speed=0.0585x elapsed=0:00:33.34    \nframe=  237 fps=7.0 q=53.0 size=     768KiB time=00:00:01.97 bitrate=3185.5kbits/s speed=0.0583x elapsed=0:00:33.88    \nframe=  241 fps=7.0 q=52.0 size=     768KiB time=00:00:02.00 bitrate=3132.7kbits/s speed=0.0584x elapsed=0:00:34.39    \nframe=  244 fps=7.0 q=53.0 size=     768KiB time=00:00:02.03 bitrate=3094.2kbits/s speed=0.0582x elapsed=0:00:34.91    \nframe=  248 fps=7.0 q=53.0 size=     768KiB time=00:00:02.06 bitrate=3044.3kbits/s speed=0.0583x elapsed=0:00:35.43    \nframe=  252 fps=7.0 q=54.0 size=     768KiB time=00:00:02.10 bitrate=2995.9kbits/s speed=0.0584x elapsed=0:00:35.94    \nframe=  255 fps=7.0 q=53.0 size=     768KiB time=00:00:02.12 bitrate=2960.7kbits/s speed=0.0583x elapsed=0:00:36.46    \nframe=  259 fps=7.0 q=51.0 size=    2048KiB time=00:00:02.15 bitrate=7773.2kbits/s speed=0.0584x elapsed=0:00:36.98    \nframe=  263 fps=7.0 q=53.0 size=    2048KiB time=00:00:02.19 bitrate=7655.0kbits/s speed=0.0584x elapsed=0:00:37.50    \nframe=  267 fps=7.0 q=52.0 size=    2048KiB time=00:00:02.22 bitrate=7540.3kbits/s speed=0.0585x elapsed=0:00:38.02    \nframe=  270 fps=7.0 q=53.0 size=    2048KiB time=00:00:02.25 bitrate=7456.5kbits/s speed=0.0584x elapsed=0:00:38.54    \nframe=  274 fps=7.0 q=52.0 size=    2048KiB time=00:00:02.28 bitrate=7347.7kbits/s speed=0.0585x elapsed=0:00:39.06    \nframe=  277 fps=7.0 q=53.0 size=    2048KiB time=00:00:02.30 bitrate=7268.1kbits/s speed=0.0583x elapsed=0:00:39.59    \nframe=  281 fps=7.0 q=52.0 size=    2048KiB time=00:00:02.34 bitrate=7164.6kbits/s speed=0.0584x elapsed=0:00:40.10    \nframe=  285 fps=7.0 q=40.0 size=    2048KiB time=00:00:02.37 bitrate=7064.1kbits/s speed=0.0584x elapsed=0:00:40.65    \nframe=  289 fps=7.0 q=52.0 size=    2048KiB time=00:00:02.40 bitrate=6966.3kbits/s speed=0.0585x elapsed=0:00:41.18    \nframe=  292 fps=7.0 q=40.0 size=    2048KiB time=00:00:02.43 bitrate=6894.7kbits/s speed=0.0583x elapsed=0:00:41.71    \nframe=  296 fps=7.0 q=52.0 size=    2048KiB time=00:00:02.46 bitrate=6801.6kbits/s speed=0.0584x elapsed=0:00:42.22    \nframe=  299 fps=7.0 q=40.0 size=    2048KiB time=00:00:02.49 bitrate=6733.3kbits/s speed=0.0583x elapsed=0:00:42.73    \nframe=  303 fps=7.0 q=52.0 size=    2048KiB time=00:00:02.52 bitrate=6644.4kbits/s speed=0.0584x elapsed=0:00:43.25    \nframe=  306 fps=7.0 q=40.0 size=    2048KiB time=00:00:02.55 bitrate=6579.3kbits/s speed=0.0583x elapsed=0:00:43.76    \nframe=  310 fps=7.0 q=52.0 size=    2048KiB time=00:00:02.58 bitrate=6494.4kbits/s speed=0.0583x elapsed=0:00:44.28    \nframe=  313 fps=7.0 q=39.0 size=    2048KiB time=00:00:02.60 bitrate=6432.2kbits/s speed=0.0582x elapsed=0:00:44.82    \nframe=  317 fps=7.0 q=52.0 size=    2048KiB time=00:00:02.64 bitrate=6351.0kbits/s speed=0.0583x elapsed=0:00:45.34    \nframe=  320 fps=7.0 q=40.0 size=    2048KiB time=00:00:02.66 bitrate=6291.5kbits/s speed=0.0581x elapsed=0:00:45.91    \nframe=  324 fps=7.0 q=53.0 size=    2048KiB time=00:00:02.70 bitrate=6213.8kbits/s speed=0.0581x elapsed=0:00:46.44    \nframe=  327 fps=7.0 q=40.0 size=    2048KiB time=00:00:02.71 bitrate=6175.7kbits/s speed=0.0578x elapsed=0:00:46.98    \nframe=  330 fps=6.9 q=52.0 size=    2048KiB time=00:00:02.75 bitrate=6100.8kbits/s speed=0.0578x elapsed=0:00:47.54    \nframe=  333 fps=6.9 q=53.0 size=    2048KiB time=00:00:02.77 bitrate=6045.8kbits/s speed=0.0577x elapsed=0:00:48.06    \nframe=  337 fps=6.9 q=52.0 size=    2048KiB time=00:00:02.80 bitrate=5974.1kbits/s speed=0.0578x elapsed=0:00:48.58    \nframe=  340 fps=6.9 q=53.0 size=    2048KiB time=00:00:02.83 bitrate=5921.4kbits/s speed=0.0577x elapsed=0:00:49.09    \nframe=  344 fps=6.9 q=52.0 size=    2048KiB time=00:00:02.86 bitrate=5852.5kbits/s speed=0.0578x elapsed=0:00:49.60    \nframe=  347 fps=6.9 q=52.0 size=    2048KiB time=00:00:02.89 bitrate=5801.9kbits/s speed=0.0577x elapsed=0:00:50.13    \nframe=  351 fps=6.9 q=52.0 size=    2048KiB time=00:00:02.92 bitrate=5735.8kbits/s speed=0.0577x elapsed=0:00:50.68    \nframe=  354 fps=6.9 q=53.0 size=    2048KiB time=00:00:02.95 bitrate=5687.2kbits/s speed=0.0576x elapsed=0:00:51.22    \nframe=  358 fps=6.9 q=52.0 size=    2048KiB time=00:00:02.98 bitrate=5623.6kbits/s speed=0.0577x elapsed=0:00:51.73    \nframe=  361 fps=6.9 q=53.0 size=    2048KiB time=00:00:03.00 bitrate=5576.9kbits/s speed=0.0576x elapsed=0:00:52.27    \nframe=  365 fps=6.9 q=52.0 size=    2048KiB time=00:00:03.04 bitrate=5515.8kbits/s speed=0.0576x elapsed=0:00:52.79    \nframe=  368 fps=6.9 q=53.0 size=    2048KiB time=00:00:03.06 bitrate=5470.8kbits/s speed=0.0575x elapsed=0:00:53.32    \nframe=  372 fps=6.9 q=53.0 size=    2048KiB time=00:00:03.10 bitrate=5412.0kbits/s speed=0.0576x elapsed=0:00:53.86    \nframe=  375 fps=6.9 q=53.0 size=    2048KiB time=00:00:03.12 bitrate=5368.7kbits/s speed=0.0574x elapsed=0:00:54.39    \nframe=  379 fps=6.9 q=52.0 size=    2048KiB time=00:00:03.15 bitrate=5312.0kbits/s speed=0.0575x elapsed=0:00:54.93    \nframe=  382 fps=6.9 q=52.0 size=    2048KiB time=00:00:03.18 bitrate=5270.3kbits/s speed=0.0574x elapsed=0:00:55.45    \nframe=  386 fps=6.9 q=54.0 size=    3072KiB time=00:00:03.21 bitrate=7823.6kbits/s speed=0.0574x elapsed=0:00:56.01    \nframe=  390 fps=6.9 q=53.0 size=    3072KiB time=00:00:03.25 bitrate=7743.3kbits/s speed=0.0575x elapsed=0:00:56.54    \nframe=  393 fps=6.9 q=54.0 size=    3072KiB time=00:00:03.27 bitrate=7684.2kbits/s speed=0.0574x elapsed=0:00:57.07    \nframe=  397 fps=6.9 q=53.0 size=    3072KiB time=00:00:03.30 bitrate=7606.8kbits/s speed=0.0574x elapsed=0:00:57.59    \nframe=  400 fps=6.9 q=54.0 size=    3072KiB time=00:00:03.33 bitrate=7549.7kbits/s speed=0.0573x elapsed=0:00:58.12    \nframe=  403 fps=6.9 q=53.0 size=    3072KiB time=00:00:03.35 bitrate=7493.5kbits/s speed=0.0572x elapsed=0:00:58.66    \nframe=  407 fps=6.9 q=54.0 size=    3072KiB time=00:00:03.39 bitrate=7419.9kbits/s speed=0.0573x elapsed=0:00:59.19    \nframe=  410 fps=6.9 q=53.0 size=    3072KiB time=00:00:03.41 bitrate=7365.6kbits/s speed=0.0572x elapsed=0:00:59.74    \nframe=  413 fps=6.9 q=41.0 size=    3072KiB time=00:00:03.44 bitrate=7312.1kbits/s speed=0.0571x elapsed=0:01:00.27    \nframe=  417 fps=6.9 q=53.0 size=    3072KiB time=00:00:03.47 bitrate=7242.0kbits/s speed=0.0572x elapsed=0:01:00.79    \nframe=  420 fps=6.8 q=41.0 size=    3072KiB time=00:00:03.50 bitrate=7190.2kbits/s speed=0.0571x elapsed=0:01:01.33    \nframe=  423 fps=6.8 q=53.0 size=    3072KiB time=00:00:03.52 bitrate=7139.2kbits/s speed=0.057x elapsed=0:01:01.87    \nframe=  426 fps=6.8 q=54.0 size=    3072KiB time=00:00:03.55 bitrate=7089.0kbits/s speed=0.0569x elapsed=0:01:02.39    \nframe=  429 fps=6.8 q=50.0 size=    3072KiB time=00:00:03.57 bitrate=7039.4kbits/s speed=0.0568x elapsed=0:01:02.94    \nframe=  432 fps=6.8 q=51.0 size=    3072KiB time=00:00:03.60 bitrate=6990.5kbits/s speed=0.0567x elapsed=0:01:03.46    \nframe=  436 fps=6.8 q=52.0 size=    3072KiB time=00:00:03.63 bitrate=6926.4kbits/s speed=0.0568x elapsed=0:01:03.99    \nframe=  439 fps=6.8 q=52.0 size=    3072KiB time=00:00:03.65 bitrate=6879.0kbits/s speed=0.0567x elapsed=0:01:04.53    \nframe=  441 fps=6.8 q=53.0 size=    3072KiB time=00:00:03.67 bitrate=6847.8kbits/s speed=0.0565x elapsed=0:01:05.05    \nframe=  445 fps=6.8 q=52.0 size=    3072KiB time=00:00:03.70 bitrate=6786.3kbits/s speed=0.0566x elapsed=0:01:05.56    \nframe=  448 fps=6.8 q=53.0 size=    3072KiB time=00:00:03.73 bitrate=6740.8kbits/s speed=0.0565x elapsed=0:01:06.08    \nframe=  452 fps=6.8 q=53.0 size=    3072KiB time=00:00:03.76 bitrate=6681.2kbits/s speed=0.0566x elapsed=0:01:06.59    \nframe=  455 fps=6.8 q=53.0 size=    3072KiB time=00:00:03.79 bitrate=6637.1kbits/s speed=0.0565x elapsed=0:01:07.10    \nframe=  458 fps=6.8 q=54.0 size=    3072KiB time=00:00:03.81 bitrate=6593.7kbits/s speed=0.0564x elapsed=0:01:07.65    \nframe=  461 fps=6.8 q=53.0 size=    3072KiB time=00:00:03.84 bitrate=6550.8kbits/s speed=0.0563x elapsed=0:01:08.18    \nframe=  465 fps=6.8 q=53.0 size=    3072KiB time=00:00:03.87 bitrate=6494.4kbits/s speed=0.0564x elapsed=0:01:08.71    \nframe=  468 fps=6.8 q=54.0 size=    3072KiB time=00:00:03.90 bitrate=6452.8kbits/s speed=0.0563x elapsed=0:01:09.24    \nframe=  471 fps=6.8 q=54.0 size=    3072KiB time=00:00:03.92 bitrate=6411.7kbits/s speed=0.0563x elapsed=0:01:09.75    \nframe=  475 fps=6.8 q=53.0 size=    3072KiB time=00:00:03.95 bitrate=6357.7kbits/s speed=0.0563x elapsed=0:01:10.29    \nframe=  478 fps=6.7 q=53.0 size=    3072KiB time=00:00:03.98 bitrate=6317.8kbits/s speed=0.0562x elapsed=0:01:10.82    \nframe=  482 fps=6.8 q=54.0 size=    3072KiB time=00:00:04.01 bitrate=6265.3kbits/s speed=0.0563x elapsed=0:01:11.34    \nframe=  486 fps=6.8 q=54.0 size=    3072KiB time=00:00:04.05 bitrate=6213.8kbits/s speed=0.0563x elapsed=0:01:11.90    \nframe=  489 fps=6.8 q=54.0 size=    3072KiB time=00:00:04.07 bitrate=6175.7kbits/s speed=0.0563x elapsed=0:01:12.43    \nframe=  493 fps=6.8 q=55.0 size=    3072KiB time=00:00:04.10 bitrate=6125.6kbits/s speed=0.0563x elapsed=0:01:12.96    \nframe=  497 fps=6.8 q=56.0 size=    3072KiB time=00:00:04.14 bitrate=6076.3kbits/s speed=0.0563x elapsed=0:01:13.50    \nframe=  499 fps=6.7 q=56.0 size=    3072KiB time=00:00:04.15 bitrate=6051.9kbits/s speed=0.0562x elapsed=0:01:14.04    \nframe=  503 fps=6.7 q=54.0 size=    3072KiB time=00:00:04.19 bitrate=6003.8kbits/s speed=0.0562x elapsed=0:01:14.55    \nframe=  507 fps=6.8 q=55.0 size=    3072KiB time=00:00:04.22 bitrate=5956.4kbits/s speed=0.0563x elapsed=0:01:15.06    \nframe=  511 fps=6.8 q=55.0 size=    3072KiB time=00:00:04.25 bitrate=5909.8kbits/s speed=0.0563x elapsed=0:01:15.58    \nframe=  514 fps=6.8 q=55.0 size=    4096KiB time=00:00:04.28 bitrate=7833.7kbits/s speed=0.0563x elapsed=0:01:16.11    \nframe=  518 fps=6.8 q=54.0 size=    4096KiB time=00:00:04.31 bitrate=7773.2kbits/s speed=0.0563x elapsed=0:01:16.63    \nframe=  522 fps=6.8 q=55.0 size=    4096KiB time=00:00:04.35 bitrate=7713.7kbits/s speed=0.0564x elapsed=0:01:17.14    \nframe=  526 fps=6.8 q=55.0 size=    4096KiB time=00:00:04.38 bitrate=7655.0kbits/s speed=0.0564x elapsed=0:01:17.66    \nframe=  530 fps=6.8 q=53.0 size=    4096KiB time=00:00:04.41 bitrate=7597.2kbits/s speed=0.0565x elapsed=0:01:18.17    \nframe=  534 fps=6.8 q=54.0 size=    4096KiB time=00:00:04.45 bitrate=7540.3kbits/s speed=0.0565x elapsed=0:01:18.70    \nframe=  537 fps=6.8 q=55.0 size=    4096KiB time=00:00:04.47 bitrate=7498.2kbits/s speed=0.0565x elapsed=0:01:19.22    \nframe=  540 fps=6.8 q=55.0 size=    4096KiB time=00:00:04.50 bitrate=7456.5kbits/s speed=0.0564x elapsed=0:01:19.76    \nframe=  543 fps=6.8 q=35.0 size=    4096KiB time=00:00:04.52 bitrate=7415.3kbits/s speed=0.0564x elapsed=0:01:20.28    \nframe=  547 fps=6.8 q=53.0 size=    4096KiB time=00:00:04.55 bitrate=7361.1kbits/s speed=0.0564x elapsed=0:01:20.83    \nframe=  550 fps=6.8 q=54.0 size=    4096KiB time=00:00:04.58 bitrate=7321.0kbits/s speed=0.0563x elapsed=0:01:21.37    \nframe=  554 fps=6.8 q=54.0 size=    4096KiB time=00:00:04.61 bitrate=7268.1kbits/s speed=0.0564x elapsed=0:01:21.89    \nframe=  557 fps=6.8 q=54.0 size=    4096KiB time=00:00:04.64 bitrate=7229.0kbits/s speed=0.0563x elapsed=0:01:22.43    \nframe=  560 fps=6.8 q=52.0 size=    4096KiB time=00:00:04.66 bitrate=7190.2kbits/s speed=0.0563x elapsed=0:01:22.94    \nframe=  564 fps=6.8 q=54.0 size=    4096KiB time=00:00:04.70 bitrate=7139.2kbits/s speed=0.0563x elapsed=0:01:23.47    \nframe=  568 fps=6.8 q=55.0 size=    4096KiB time=00:00:04.73 bitrate=7089.0kbits/s speed=0.0563x elapsed=0:01:24.00    \nframe=  571 fps=6.8 q=55.0 size=    4096KiB time=00:00:04.75 bitrate=7051.7kbits/s speed=0.0563x elapsed=0:01:24.53    \nframe=  574 fps=6.7 q=55.0 size=    4096KiB time=00:00:04.78 bitrate=7014.9kbits/s speed=0.0562x elapsed=0:01:25.04    \nframe=  576 fps=6.7 q=54.0 size=    4096KiB time=00:00:04.80 bitrate=6990.5kbits/s speed=0.0561x elapsed=0:01:25.56    \nframe=  576 fps=6.7 q=54.0 size=    4096KiB time=00:00:04.80 bitrate=6990.5kbits/s speed=0.0558x elapsed=0:01:26.09    \nframe=  576 fps=6.6 q=54.0 size=    4096KiB time=00:00:04.80 bitrate=6990.5kbits/s speed=0.0554x elapsed=0:01:26.63    \nframe=  576 fps=6.6 q=54.0 size=    4096KiB time=00:00:04.80 bitrate=6990.5kbits/s speed=0.0551x elapsed=0:01:27.14    \nframe=  576 fps=6.6 q=54.0 size=    4096KiB time=00:00:04.80 bitrate=6990.5kbits/s speed=0.0547x elapsed=0:01:27.67    \nframe=  576 fps=6.5 q=54.0 size=    4096KiB time=00:00:04.80 bitrate=6990.5kbits/s speed=0.0544x elapsed=0:01:28.19    \nframe=  576 fps=6.5 q=54.0 size=    4096KiB time=00:00:04.80 bitrate=6990.5kbits/s speed=0.0541x elapsed=0:01:28.71    \n[out#0/webm @ 000001af7a6d9b80] video:5079KiB audio:0KiB subtitle:0KiB other streams:0KiB global headers:0KiB muxing overhead: 0.094118%\nframe=  600 fps=6.7 q=54.0 Lsize=    5084KiB time=00:00:05.00 bitrate=8329.3kbits/s speed=0.0562x elapsed=0:01:29.02    \n",
  "seconds": 89.1474769115448,
  "probe_out": {}
}